<?xml version="1.0" encoding="UTF-8"?><svg xmlns:xlink="http://www.w3.org/1999/xlink" xmlns="http://www.w3.org/2000/svg" contentScriptType="text/ecmascript" width="600" zoomAndPan="magnify" contentStyleType="text/css" height="800" id="svg0" preserveAspectRatio="xMidYMid meet" version="1.0"><path fill="#ffc0c0" stroke-width="2.0" d="M155.236 48.873 L234.236 48.873 L234.236 128.873 L155.236 128.873 L155.236 48.873 Z" id="" stroke="#606060"/><path fill="#e0e0e0" stroke-width="2.0" d="M234.236 128.873 L234.236 170.873 L155.236 170.873 L155.236 243.873 L111.236 243.873 L111.236 170.873 L35.236 170.873 L35.236 128.873 L111.236 128.873 L111.236 48.873 L155.236 48.873 L155.236 128.873 Z" id="" stroke="#606060"/><path fill="#e0d090" stroke-width="2.0" d="M35.236 48.873 L111.236 48.873 L111.236 128.873 L35.236 128.873 L35.236 48.873 Z" id="" stroke="#606060"/><path fill="#e0c0a0" stroke-width="2.0" d="M35.236 170.873 L111.236 170.873 L111.236 243.873 L35.236 243.873 L35.236 170.873 Z" id="" stroke="#606060"/><path fill="#e0e080" stroke-width="2.0" d="M155.236 170.873 L234.236 170.873 L234.236 243.873 L155.236 243.873 L155.236 170.873 Z" id="" stroke="#606060"/><path fill="none" stroke-width="2.0" d="M378.000 188.000 L471.000 246.000 L442.000 368.000 L389.000 442.000 L181.000 296.000 L100.000 564.000 L157.000 711.000 L368.000 572.000" id="" stroke="#404080"/><path fill="none" stroke-width="2.0" d="M396.000 81.000 L336.000 81.000 L336.000 173.000 L513.000 173.000" id="" stroke="#404080"/><path fill="none" stroke-width="2.0" d="M513.000 145.000 L513.000 81.000 L438.000 81.000" id="" stroke="#404080"/><path fill="none" stroke-width="2.0" d="M513.000 145.000 L513.000 173.000" id="" stroke="#800080"/><path fill="#b0d090" stroke-width="2.0" d="M300.000 241.000 L369.000 241.000 L369.000 336.000 L300.000 336.000 L300.000 241.000 Z" id="" stroke="#606060"/><path fill="#88c8a8" stroke-width="2.0" d="M203.236 99.873 L220.236 99.873 L220.236 110.873 L203.236 110.873 L203.236 99.873 Z" id="" stroke="#606060"/><path fill="#88b8b8" stroke-width="2.0" d="M175.236 69.873 L220.236 69.873 L220.236 88.873 L175.236 88.873 L175.236 69.873 Z" id="" stroke="#606060"/><path fill="#88c8a8" stroke-width="2.0" d="M175.236 99.873 L194.736 99.873 L194.736 110.873 L175.236 110.873 L175.236 99.873 Z" id="" stroke="#606060"/><path fill="none" stroke-width="2.0" d="M438.000 81.000 L396.000 81.000" id="" stroke="#008080"/><path fill="#FF0000" stroke-width="2.0" d="M264.407 488.136 L226.184 481.897 L199.375 509.847 L193.497 471.567 L158.630 454.708 L193.220 437.288 L198.480 398.918 L225.736 426.432 L263.854 419.578 L246.109 454.002 Z" id="" stroke="#606060"/></svg>